<svg xmlns="http://www.w3.org/2000/svg" version="1.1" xmlns:xlink="http://www.w3.org/1999/xlink" xmlns:svgjs="http://svgjs.com/svgjs" width="1440" height="560" preserveAspectRatio="none" viewBox="0 0 1440 560"><g mask="url(&quot;#SvgjsMask1000&quot;)" fill="none"><rect width="1440" height="560" x="0" y="0" fill="#0e2a47"></rect><path d="M-104.44 372.48L-104.44 372.48" stroke="#132e65" stroke-width="1.5"></path><path d="M-104.44 372.48L-99.7 534.73" stroke="#132e65" stroke-width="1.5"></path><path d="M-104.44 372.48L74.19 338.69" stroke="#132e65" stroke-width="1.5"></path><path d="M-104.44 372.48L89.9 512.58" stroke="#132e65" stroke-width="1.5"></path><path d="M-104.44 372.48L43.25 643.11" stroke="#132e65" stroke-width="1.5"></path><path d="M-104.44 372.48L-71.25 685.2" stroke="#132e65" stroke-width="1.5"></path><path d="M-104.44 372.48L246.02 352" stroke="#132e65" stroke-width="1.5"></path><path d="M-99.7 534.73L-99.7 534.73" stroke="#132e65" stroke-width="1.5"></path><path d="M-99.7 534.73L-71.25 685.2" stroke="#132e65" stroke-width="1.5"></path><path d="M-99.7 534.73L43.25 643.11" stroke="#132e65" stroke-width="1.5"></path><path d="M-71.25 685.2L-71.25 685.2" stroke="#132e65" stroke-width="1.5"></path><path d="M-71.25 685.2L43.25 643.11" stroke="#132e65" stroke-width="1.5"></path><path d="M-71.25 685.2L89.9 512.58" stroke="#132e65" stroke-width="1.5"></path><path d="M-71.25 685.2L197.23 683.24" stroke="#132e65" stroke-width="1.5"></path><path d="M-71.25 685.2L223.92 534.18" stroke="#132e65" stroke-width="1.5"></path><path d="M74.19 338.69L74.19 338.69" stroke="#132e65" stroke-width="1.5"></path><path d="M74.19 338.69L246.02 352" stroke="#132e65" stroke-width="1.5"></path><path d="M74.19 338.69L89.9 512.58" stroke="#132e65" stroke-width="1.5"></path><path d="M74.19 338.69L223.92 534.18" stroke="#132e65" stroke-width="1.5"></path><path d="M74.19 338.69L-99.7 534.73" stroke="#132e65" stroke-width="1.5"></path><path d="M74.19 338.69L43.25 643.11" stroke="#132e65" stroke-width="1.5"></path><path d="M89.9 512.58L89.9 512.58" stroke="#132e65" stroke-width="1.5"></path><path d="M89.9 512.58L223.92 534.18" stroke="#132e65" stroke-width="1.5"></path><path d="M89.9 512.58L43.25 643.11" stroke="#132e65" stroke-width="1.5"></path><path d="M89.9 512.58L-99.7 534.73" stroke="#132e65" stroke-width="1.5"></path><path d="M89.9 512.58L197.23 683.24" stroke="#132e65" stroke-width="1.5"></path><path d="M89.9 512.58L246.02 352" stroke="#132e65" stroke-width="1.5"></path><path d="M43.25 643.11L43.25 643.11" stroke="#132e65" stroke-width="1.5"></path><path d="M43.25 643.11L197.23 683.24" stroke="#132e65" stroke-width="1.5"></path><path d="M246.02 352L246.02 352" stroke="#132e65" stroke-width="1.5"></path><path d="M246.02 352L390.45 390.6" stroke="#132e65" stroke-width="1.5"></path><path d="M246.02 352L223.92 534.18" stroke="#132e65" stroke-width="1.5"></path><path d="M246.02 352L411.58 488.59" stroke="#132e65" stroke-width="1.5"></path><path d="M223.92 534.18L223.92 534.18" stroke="#132e65" stroke-width="1.5"></path><path d="M223.92 534.18L197.23 683.24" stroke="#132e65" stroke-width="1.5"></path><path d="M197.23 683.24L197.23 683.24" stroke="#132e65" stroke-width="1.5"></path><path d="M197.23 683.24L363.22 664.84" stroke="#132e65" stroke-width="1.5"></path><path d="M390.45 390.6L390.45 390.6" stroke="#132e65" stroke-width="1.5"></path><path d="M390.45 390.6L411.58 488.59" stroke="#132e65" stroke-width="1.5"></path><path d="M390.45 390.6L533.69 367.6" stroke="#132e65" stroke-width="1.5"></path><path d="M390.45 390.6L510.51 537.11" stroke="#132e65" stroke-width="1.5"></path><path d="M390.45 390.6L223.92 534.18" stroke="#132e65" stroke-width="1.5"></path><path d="M411.58 488.59L411.58 488.59" stroke="#132e65" stroke-width="1.5"></path><path d="M411.58 488.59L510.51 537.11" stroke="#132e65" stroke-width="1.5"></path><path d="M411.58 488.59L533.69 367.6" stroke="#132e65" stroke-width="1.5"></path><path d="M411.58 488.59L363.22 664.84" stroke="#132e65" stroke-width="1.5"></path><path d="M411.58 488.59L223.92 534.18" stroke="#132e65" stroke-width="1.5"></path><path d="M411.58 488.59L545.56 649.99" stroke="#132e65" stroke-width="1.5"></path><path d="M363.22 664.84L363.22 664.84" stroke="#132e65" stroke-width="1.5"></path><path d="M363.22 664.84L545.56 649.99" stroke="#132e65" stroke-width="1.5"></path><path d="M363.22 664.84L223.92 534.18" stroke="#132e65" stroke-width="1.5"></path><path d="M363.22 664.84L510.51 537.11" stroke="#132e65" stroke-width="1.5"></path><path d="M533.69 367.6L533.69 367.6" stroke="#132e65" stroke-width="1.5"></path><path d="M533.69 367.6L657.36 354.68" stroke="#132e65" stroke-width="1.5"></path><path d="M533.69 367.6L510.51 537.11" stroke="#132e65" stroke-width="1.5"></path><path d="M510.51 537.11L510.51 537.11" stroke="#132e65" stroke-width="1.5"></path><path d="M510.51 537.11L545.56 649.99" stroke="#132e65" stroke-width="1.5"></path><path d="M545.56 649.99L545.56 649.99" stroke="#132e65" stroke-width="1.5"></path><path d="M545.56 649.99L704.12 692.33" stroke="#132e65" stroke-width="1.5"></path><path d="M693.3 212.09L693.3 212.09" stroke="#132e65" stroke-width="1.5"></path><path d="M693.3 212.09L657.36 354.68" stroke="#132e65" stroke-width="1.5"></path><path d="M693.3 212.09L807.32 384.78" stroke="#132e65" stroke-width="1.5"></path><path d="M693.3 212.09L533.69 367.6" stroke="#132e65" stroke-width="1.5"></path><path d="M693.3 212.09L981.13 238.01" stroke="#132e65" stroke-width="1.5"></path><path d="M693.3 212.09L711.1 503.77" stroke="#132e65" stroke-width="1.5"></path><path d="M693.3 212.09L971.83 62.15" stroke="#132e65" stroke-width="1.5"></path><path d="M657.36 354.68L657.36 354.68" stroke="#132e65" stroke-width="1.5"></path><path d="M711.1 503.77L711.1 503.77" stroke="#132e65" stroke-width="1.5"></path><path d="M711.1 503.77L861.07 517.53" stroke="#132e65" stroke-width="1.5"></path><path d="M711.1 503.77L807.32 384.78" stroke="#132e65" stroke-width="1.5"></path><path d="M711.1 503.77L657.36 354.68" stroke="#132e65" stroke-width="1.5"></path><path d="M711.1 503.77L704.12 692.33" stroke="#132e65" stroke-width="1.5"></path><path d="M711.1 503.77L510.51 537.11" stroke="#132e65" stroke-width="1.5"></path><path d="M704.12 692.33L704.12 692.33" stroke="#132e65" stroke-width="1.5"></path><path d="M704.12 692.33L805.43 693.11" stroke="#132e65" stroke-width="1.5"></path><path d="M704.12 692.33L861.07 517.53" stroke="#132e65" stroke-width="1.5"></path><path d="M704.12 692.33L510.51 537.11" stroke="#132e65" stroke-width="1.5"></path><path d="M704.12 692.33L978.65 643.71" stroke="#132e65" stroke-width="1.5"></path><path d="M807.32 384.78L807.32 384.78" stroke="#132e65" stroke-width="1.5"></path><path d="M807.32 384.78L861.07 517.53" stroke="#132e65" stroke-width="1.5"></path><path d="M807.32 384.78L657.36 354.68" stroke="#132e65" stroke-width="1.5"></path><path d="M861.07 517.53L861.07 517.53" stroke="#132e65" stroke-width="1.5"></path><path d="M861.07 517.53L976.34 518.41" stroke="#132e65" stroke-width="1.5"></path><path d="M805.43 693.11L805.43 693.11" stroke="#132e65" stroke-width="1.5"></path><path d="M964.92 -97.85L964.92 -97.85" stroke="#132e65" stroke-width="1.5"></path><path d="M964.92 -97.85L971.83 62.15" stroke="#132e65" stroke-width="1.5"></path><path d="M971.83 62.15L971.83 62.15" stroke="#132e65" stroke-width="1.5"></path><path d="M971.83 62.15L981.13 238.01" stroke="#132e65" stroke-width="1.5"></path><path d="M971.83 62.15L1150.62 76.72" stroke="#132e65" stroke-width="1.5"></path><path d="M971.83 62.15L1097.15 229.77" stroke="#132e65" stroke-width="1.5"></path><path d="M981.13 238.01L981.13 238.01" stroke="#132e65" stroke-width="1.5"></path><path d="M981.13 238.01L1097.15 229.77" stroke="#132e65" stroke-width="1.5"></path><path d="M981.13 238.01L1100.06 389.43" stroke="#132e65" stroke-width="1.5"></path><path d="M981.13 238.01L807.32 384.78" stroke="#132e65" stroke-width="1.5"></path><path d="M981.13 238.01L1150.62 76.72" stroke="#132e65" stroke-width="1.5"></path><path d="M976.34 518.41L976.34 518.41" stroke="#132e65" stroke-width="1.5"></path><path d="M976.34 518.41L978.65 643.71" stroke="#132e65" stroke-width="1.5"></path><path d="M976.34 518.41L1116.58 511.58" stroke="#132e65" stroke-width="1.5"></path><path d="M978.65 643.71L978.65 643.71" stroke="#132e65" stroke-width="1.5"></path><path d="M978.65 643.71L1132.62 656.78" stroke="#132e65" stroke-width="1.5"></path><path d="M978.65 643.71L861.07 517.53" stroke="#132e65" stroke-width="1.5"></path><path d="M978.65 643.71L805.43 693.11" stroke="#132e65" stroke-width="1.5"></path><path d="M978.65 643.71L1116.58 511.58" stroke="#132e65" stroke-width="1.5"></path><path d="M978.65 643.71L1238.35 702.19" stroke="#132e65" stroke-width="1.5"></path><path d="M1132.97 -105.46L1132.97 -105.46" stroke="#132e65" stroke-width="1.5"></path><path d="M1132.97 -105.46L1240.6 -81.72" stroke="#132e65" stroke-width="1.5"></path><path d="M1132.97 -105.46L964.92 -97.85" stroke="#132e65" stroke-width="1.5"></path><path d="M1132.97 -105.46L1150.62 76.72" stroke="#132e65" stroke-width="1.5"></path><path d="M1132.97 -105.46L971.83 62.15" stroke="#132e65" stroke-width="1.5"></path><path d="M1150.62 76.72L1150.62 76.72" stroke="#132e65" stroke-width="1.5"></path><path d="M1150.62 76.72L1279.26 98.93" stroke="#132e65" stroke-width="1.5"></path><path d="M1150.62 76.72L1097.15 229.77" stroke="#132e65" stroke-width="1.5"></path><path d="M1097.15 229.77L1097.15 229.77" stroke="#132e65" stroke-width="1.5"></path><path d="M1097.15 229.77L1100.06 389.43" stroke="#132e65" stroke-width="1.5"></path><path d="M1097.15 229.77L1279.26 98.93" stroke="#132e65" stroke-width="1.5"></path><path d="M1097.15 229.77L1268.98 396.2" stroke="#132e65" stroke-width="1.5"></path><path d="M1100.06 389.43L1100.06 389.43" stroke="#132e65" stroke-width="1.5"></path><path d="M1100.06 389.43L1116.58 511.58" stroke="#132e65" stroke-width="1.5"></path><path d="M1100.06 389.43L1268.98 396.2" stroke="#132e65" stroke-width="1.5"></path><path d="M1116.58 511.58L1116.58 511.58" stroke="#132e65" stroke-width="1.5"></path><path d="M1116.58 511.58L1252.69 515.33" stroke="#132e65" stroke-width="1.5"></path><path d="M1116.58 511.58L1132.62 656.78" stroke="#132e65" stroke-width="1.5"></path><path d="M1116.58 511.58L1268.98 396.2" stroke="#132e65" stroke-width="1.5"></path><path d="M1132.62 656.78L1132.62 656.78" stroke="#132e65" stroke-width="1.5"></path><path d="M1132.62 656.78L1238.35 702.19" stroke="#132e65" stroke-width="1.5"></path><path d="M1240.6 -81.72L1240.6 -81.72" stroke="#132e65" stroke-width="1.5"></path><path d="M1240.6 -81.72L1150.62 76.72" stroke="#132e65" stroke-width="1.5"></path><path d="M1240.6 -81.72L1279.26 98.93" stroke="#132e65" stroke-width="1.5"></path><path d="M1279.26 98.93L1279.26 98.93" stroke="#132e65" stroke-width="1.5"></path><path d="M1279.26 98.93L1416.06 67.88" stroke="#132e65" stroke-width="1.5"></path><path d="M1279.26 98.93L1434.55 234.96" stroke="#132e65" stroke-width="1.5"></path><path d="M1279.26 98.93L1432.05 -85.68" stroke="#132e65" stroke-width="1.5"></path><path d="M1268.98 396.2L1268.98 396.2" stroke="#132e65" stroke-width="1.5"></path><path d="M1268.98 396.2L1252.69 515.33" stroke="#132e65" stroke-width="1.5"></path><path d="M1268.98 396.2L1432.61 350.12" stroke="#132e65" stroke-width="1.5"></path><path d="M1252.69 515.33L1252.69 515.33" stroke="#132e65" stroke-width="1.5"></path><path d="M1252.69 515.33L1132.62 656.78" stroke="#132e65" stroke-width="1.5"></path><path d="M1252.69 515.33L1238.35 702.19" stroke="#132e65" stroke-width="1.5"></path><path d="M1252.69 515.33L1100.06 389.43" stroke="#132e65" stroke-width="1.5"></path><path d="M1238.35 702.19L1238.35 702.19" stroke="#132e65" stroke-width="1.5"></path><path d="M1238.35 702.19L1443.45 655.87" stroke="#132e65" stroke-width="1.5"></path><path d="M1432.05 -85.68L1432.05 -85.68" stroke="#132e65" stroke-width="1.5"></path><path d="M1432.05 -85.68L1416.06 67.88" stroke="#132e65" stroke-width="1.5"></path><path d="M1432.05 -85.68L1589.35 -39.35" stroke="#132e65" stroke-width="1.5"></path><path d="M1432.05 -85.68L1240.6 -81.72" stroke="#132e65" stroke-width="1.5"></path><path d="M1432.05 -85.68L1585.27 86.1" stroke="#132e65" stroke-width="1.5"></path><path d="M1416.06 67.88L1416.06 67.88" stroke="#132e65" stroke-width="1.5"></path><path d="M1416.06 67.88L1434.55 234.96" stroke="#132e65" stroke-width="1.5"></path><path d="M1416.06 67.88L1585.27 86.1" stroke="#132e65" stroke-width="1.5"></path><path d="M1416.06 67.88L1589.35 -39.35" stroke="#132e65" stroke-width="1.5"></path><path d="M1416.06 67.88L1542.88 229.05" stroke="#132e65" stroke-width="1.5"></path><path d="M1434.55 234.96L1434.55 234.96" stroke="#132e65" stroke-width="1.5"></path><path d="M1434.55 234.96L1542.88 229.05" stroke="#132e65" stroke-width="1.5"></path><path d="M1434.55 234.96L1432.61 350.12" stroke="#132e65" stroke-width="1.5"></path><path d="M1434.55 234.96L1587.53 373.09" stroke="#132e65" stroke-width="1.5"></path><path d="M1432.61 350.12L1432.61 350.12" stroke="#132e65" stroke-width="1.5"></path><path d="M1432.61 350.12L1450.45 498.94" stroke="#132e65" stroke-width="1.5"></path><path d="M1432.61 350.12L1587.53 373.09" stroke="#132e65" stroke-width="1.5"></path><path d="M1432.61 350.12L1542.88 229.05" stroke="#132e65" stroke-width="1.5"></path><path d="M1450.45 498.94L1450.45 498.94" stroke="#132e65" stroke-width="1.5"></path><path d="M1450.45 498.94L1538.39 535.73" stroke="#132e65" stroke-width="1.5"></path><path d="M1443.45 655.87L1443.45 655.87" stroke="#132e65" stroke-width="1.5"></path><path d="M1443.45 655.87L1563.32 687.62" stroke="#132e65" stroke-width="1.5"></path><path d="M1443.45 655.87L1538.39 535.73" stroke="#132e65" stroke-width="1.5"></path><path d="M1443.45 655.87L1450.45 498.94" stroke="#132e65" stroke-width="1.5"></path><path d="M1443.45 655.87L1252.69 515.33" stroke="#132e65" stroke-width="1.5"></path><path d="M1589.35 -39.35L1589.35 -39.35" stroke="#132e65" stroke-width="1.5"></path><path d="M1589.35 -39.35L1585.27 86.1" stroke="#132e65" stroke-width="1.5"></path><path d="M1589.35 -39.35L1542.88 229.05" stroke="#132e65" stroke-width="1.5"></path><path d="M1585.27 86.1L1585.27 86.1" stroke="#132e65" stroke-width="1.5"></path><path d="M1585.27 86.1L1542.88 229.05" stroke="#132e65" stroke-width="1.5"></path><path d="M1542.88 229.05L1542.88 229.05" stroke="#132e65" stroke-width="1.5"></path><path d="M1542.88 229.05L1587.53 373.09" stroke="#132e65" stroke-width="1.5"></path><path d="M1587.53 373.09L1587.53 373.09" stroke="#132e65" stroke-width="1.5"></path><path d="M1587.53 373.09L1538.39 535.73" stroke="#132e65" stroke-width="1.5"></path><path d="M1587.53 373.09L1450.45 498.94" stroke="#132e65" stroke-width="1.5"></path><path d="M1538.39 535.73L1538.39 535.73" stroke="#132e65" stroke-width="1.5"></path><path d="M1538.39 535.73L1563.32 687.62" stroke="#132e65" stroke-width="1.5"></path><path d="M1563.32 687.62L1563.32 687.62" stroke="#132e65" stroke-width="1.5"></path><path d="M1563.32 687.62L1450.45 498.94" stroke="#132e65" stroke-width="1.5"></path><path d="M1563.32 687.62L1587.53 373.09" stroke="#132e65" stroke-width="1.5"></path><path d="M1563.32 687.62L1238.35 702.19" stroke="#132e65" stroke-width="1.5"></path><path d="M1563.32 687.62L1252.69 515.33" stroke="#132e65" stroke-width="1.5"></path><circle r="5" cx="-104.44" cy="372.48" fill="#132e65"></circle><circle r="5" cx="-99.7" cy="534.73" fill="#132e65"></circle><circle r="5" cx="-71.25" cy="685.2" fill="#132e65"></circle><circle r="5" cx="74.19" cy="338.69" fill="#132e65"></circle><circle r="5" cx="89.9" cy="512.58" fill="#132e65"></circle><circle r="5" cx="43.25" cy="643.11" fill="#132e65"></circle><circle r="5" cx="246.02" cy="352" fill="#132e65"></circle><circle r="5" cx="223.92" cy="534.18" fill="#132e65"></circle><circle r="5" cx="197.23" cy="683.24" fill="#132e65"></circle><circle r="5" cx="390.45" cy="390.6" fill="#132e65"></circle><circle r="5" cx="411.58" cy="488.59" fill="#132e65"></circle><circle r="5" cx="363.22" cy="664.84" fill="#132e65"></circle><circle r="5" cx="533.69" cy="367.6" fill="#132e65"></circle><circle r="5" cx="510.51" cy="537.11" fill="#132e65"></circle><circle r="5" cx="545.56" cy="649.99" fill="#132e65"></circle><circle r="5" cx="693.3" cy="212.09" fill="#132e65"></circle><circle r="5" cx="657.36" cy="354.68" fill="#132e65"></circle><circle r="5" cx="711.1" cy="503.77" fill="#132e65"></circle><circle r="5" cx="704.12" cy="692.33" fill="#132e65"></circle><circle r="5" cx="807.32" cy="384.78" fill="#132e65"></circle><circle r="5" cx="861.07" cy="517.53" fill="#132e65"></circle><circle r="5" cx="805.43" cy="693.11" fill="#132e65"></circle><circle r="5" cx="964.92" cy="-97.85" fill="#132e65"></circle><circle r="5" cx="971.83" cy="62.15" fill="#132e65"></circle><circle r="5" cx="981.13" cy="238.01" fill="#132e65"></circle><circle r="5" cx="976.34" cy="518.41" fill="#132e65"></circle><circle r="5" cx="978.65" cy="643.71" fill="#132e65"></circle><circle r="5" cx="1132.97" cy="-105.46" fill="#132e65"></circle><circle r="5" cx="1150.62" cy="76.72" fill="#132e65"></circle><circle r="5" cx="1097.15" cy="229.77" fill="#132e65"></circle><circle r="5" cx="1100.06" cy="389.43" fill="#132e65"></circle><circle r="5" cx="1116.58" cy="511.58" fill="#132e65"></circle><circle r="5" cx="1132.62" cy="656.78" fill="#132e65"></circle><circle r="5" cx="1240.6" cy="-81.72" fill="#132e65"></circle><circle r="5" cx="1279.26" cy="98.93" fill="#132e65"></circle><circle r="5" cx="1268.98" cy="396.2" fill="#132e65"></circle><circle r="5" cx="1252.69" cy="515.33" fill="#132e65"></circle><circle r="5" cx="1238.35" cy="702.19" fill="#132e65"></circle><circle r="5" cx="1432.05" cy="-85.68" fill="#132e65"></circle><circle r="5" cx="1416.06" cy="67.88" fill="#132e65"></circle><circle r="5" cx="1434.55" cy="234.96" fill="#132e65"></circle><circle r="5" cx="1432.61" cy="350.12" fill="#132e65"></circle><circle r="5" cx="1450.45" cy="498.94" fill="#132e65"></circle><circle r="5" cx="1443.45" cy="655.87" fill="#132e65"></circle><circle r="5" cx="1589.35" cy="-39.35" fill="#132e65"></circle><circle r="5" cx="1585.27" cy="86.1" fill="#132e65"></circle><circle r="5" cx="1542.88" cy="229.05" fill="#132e65"></circle><circle r="5" cx="1587.53" cy="373.09" fill="#132e65"></circle><circle r="5" cx="1538.39" cy="535.73" fill="#132e65"></circle><circle r="5" cx="1563.32" cy="687.62" fill="#132e65"></circle><path d="M492.63 512.01L492.63 512.01" stroke="hsl(228.5, 77.2%, 51.5%)" stroke-width="1.5"></path><path d="M492.63 512.01L380.14 506.71" stroke="hsl(228.5, 77.2%, 51.5%)" stroke-width="1.5"></path><path d="M492.63 512.01L501.53 673.74" stroke="hsl(228.5, 77.2%, 51.5%)" stroke-width="1.5"></path><path d="M492.63 512.01L657.06 554.47" stroke="hsl(228.5, 77.2%, 51.5%)" stroke-width="1.5"></path><path d="M664.21 679.4L664.21 679.4" stroke="hsl(228.5, 77.2%, 51.5%)" stroke-width="1.5"></path><path d="M664.21 679.4L657.06 554.47" stroke="hsl(228.5, 77.2%, 51.5%)" stroke-width="1.5"></path><path d="M664.21 679.4L501.53 673.74" stroke="hsl(228.5, 77.2%, 51.5%)" stroke-width="1.5"></path><path d="M852.4 667.67L852.4 667.67" stroke="hsl(228.5, 77.2%, 51.5%)" stroke-width="1.5"></path><path d="M852.4 667.67L955.39 682.57" stroke="hsl(228.5, 77.2%, 51.5%)" stroke-width="1.5"></path><path d="M852.4 667.67L798.81 491.81" stroke="hsl(228.5, 77.2%, 51.5%)" stroke-width="1.5"></path><path d="M852.4 667.67L664.21 679.4" stroke="hsl(228.5, 77.2%, 51.5%)" stroke-width="1.5"></path><path d="M852.4 667.67L657.06 554.47" stroke="hsl(228.5, 77.2%, 51.5%)" stroke-width="1.5"></path><path d="M852.4 667.67L1001.01 493.27" stroke="hsl(228.5, 77.2%, 51.5%)" stroke-width="1.5"></path><path d="M992.57 259.88L992.57 259.88" stroke="hsl(228.5, 77.2%, 51.5%)" stroke-width="1.5"></path><path d="M992.57 259.88L941.24 373.72" stroke="hsl(228.5, 77.2%, 51.5%)" stroke-width="1.5"></path><path d="M992.57 259.88L1122.16 249.5" stroke="hsl(228.5, 77.2%, 51.5%)" stroke-width="1.5"></path><path d="M992.57 259.88L1094.3 381.9" stroke="hsl(228.5, 77.2%, 51.5%)" stroke-width="1.5"></path><path d="M1001.01 493.27L1001.01 493.27" stroke="hsl(228.5, 77.2%, 51.5%)" stroke-width="1.5"></path><path d="M1001.01 493.27L1132 519.78" stroke="hsl(228.5, 77.2%, 51.5%)" stroke-width="1.5"></path><path d="M1001.01 493.27L941.24 373.72" stroke="hsl(228.5, 77.2%, 51.5%)" stroke-width="1.5"></path><path d="M1001.01 493.27L1094.3 381.9" stroke="hsl(228.5, 77.2%, 51.5%)" stroke-width="1.5"></path><path d="M955.39 682.57L955.39 682.57" stroke="hsl(228.5, 77.2%, 51.5%)" stroke-width="1.5"></path><path d="M955.39 682.57L1115.07 653.4" stroke="hsl(228.5, 77.2%, 51.5%)" stroke-width="1.5"></path><path d="M955.39 682.57L1001.01 493.27" stroke="hsl(228.5, 77.2%, 51.5%)" stroke-width="1.5"></path><path d="M955.39 682.57L1132 519.78" stroke="hsl(228.5, 77.2%, 51.5%)" stroke-width="1.5"></path><path d="M955.39 682.57L798.81 491.81" stroke="hsl(228.5, 77.2%, 51.5%)" stroke-width="1.5"></path><path d="M955.39 682.57L664.21 679.4" stroke="hsl(228.5, 77.2%, 51.5%)" stroke-width="1.5"></path><path d="M1278.55 209.98L1278.55 209.98" stroke="hsl(228.5, 77.2%, 51.5%)" stroke-width="1.5"></path><path d="M1278.55 209.98L1122.16 249.5" stroke="hsl(228.5, 77.2%, 51.5%)" stroke-width="1.5"></path><path d="M1278.55 209.98L1435 260.89" stroke="hsl(228.5, 77.2%, 51.5%)" stroke-width="1.5"></path><path d="M1278.55 209.98L1289.31 41.19" stroke="hsl(228.5, 77.2%, 51.5%)" stroke-width="1.5"></path><path d="M1278.55 209.98L1390.09 345.61" stroke="hsl(228.5, 77.2%, 51.5%)" stroke-width="1.5"></path><path d="M1278.55 209.98L1311.18 402.13" stroke="hsl(228.5, 77.2%, 51.5%)" stroke-width="1.5"></path><path d="M1278.55 209.98L1453.24 64.88" stroke="hsl(228.5, 77.2%, 51.5%)" stroke-width="1.5"></path><path d="M1266.43 557.71L1266.43 557.71" stroke="hsl(228.5, 77.2%, 51.5%)" stroke-width="1.5"></path><path d="M1266.43 557.71L1311.77 672.22" stroke="hsl(228.5, 77.2%, 51.5%)" stroke-width="1.5"></path><path d="M1266.43 557.71L1132 519.78" stroke="hsl(228.5, 77.2%, 51.5%)" stroke-width="1.5"></path><path d="M1453.24 64.88L1453.24 64.88" stroke="hsl(228.5, 77.2%, 51.5%)" stroke-width="1.5"></path><path d="M1453.24 64.88L1555.01 51.38" stroke="hsl(228.5, 77.2%, 51.5%)" stroke-width="1.5"></path><path d="M1453.24 64.88L1413.94 -39.47" stroke="hsl(228.5, 77.2%, 51.5%)" stroke-width="1.5"></path><path d="M1453.24 64.88L1289.31 41.19" stroke="hsl(228.5, 77.2%, 51.5%)" stroke-width="1.5"></path><path d="M1453.24 64.88L1543.92 -78.78" stroke="hsl(228.5, 77.2%, 51.5%)" stroke-width="1.5"></path><path d="M1577.36 209.15L1577.36 209.15" stroke="hsl(228.5, 77.2%, 51.5%)" stroke-width="1.5"></path><path d="M1577.36 209.15L1555.97 338.73" stroke="hsl(228.5, 77.2%, 51.5%)" stroke-width="1.5"></path><path d="M1577.36 209.15L1435 260.89" stroke="hsl(228.5, 77.2%, 51.5%)" stroke-width="1.5"></path><path d="M1577.36 209.15L1555.01 51.38" stroke="hsl(228.5, 77.2%, 51.5%)" stroke-width="1.5"></path><path d="M1577.36 209.15L1453.24 64.88" stroke="hsl(228.5, 77.2%, 51.5%)" stroke-width="1.5"></path><path d="M1577.36 209.15L1390.09 345.61" stroke="hsl(228.5, 77.2%, 51.5%)" stroke-width="1.5"></path><path d="M1577.36 209.15L1543.92 -78.78" stroke="hsl(228.5, 77.2%, 51.5%)" stroke-width="1.5"></path><path d="M1555.97 338.73L1555.97 338.73" stroke="hsl(228.5, 77.2%, 51.5%)" stroke-width="1.5"></path><path d="M1584.23 704.35L1584.23 704.35" stroke="hsl(228.5, 77.2%, 51.5%)" stroke-width="1.5"></path><path d="M1584.23 704.35L1583.68 521.99" stroke="hsl(228.5, 77.2%, 51.5%)" stroke-width="1.5"></path><path d="M1584.23 704.35L1390.29 645.67" stroke="hsl(228.5, 77.2%, 51.5%)" stroke-width="1.5"></path><path d="M1584.23 704.35L1461.88 503.64" stroke="hsl(228.5, 77.2%, 51.5%)" stroke-width="1.5"></path><path d="M-85.78 542.58L-85.78 542.58" stroke="hsl(228.5, 77.2%, 51.5%)" stroke-width="1.5"></path><path d="M-85.78 542.58L-58.87 657.31" stroke="hsl(228.5, 77.2%, 51.5%)" stroke-width="1.5"></path><path d="M-85.78 542.58L38.94 560.79" stroke="hsl(228.5, 77.2%, 51.5%)" stroke-width="1.5"></path><path d="M-58.87 657.31L-58.87 657.31" stroke="hsl(228.5, 77.2%, 51.5%)" stroke-width="1.5"></path><path d="M-58.87 657.31L57.56 682.8" stroke="hsl(228.5, 77.2%, 51.5%)" stroke-width="1.5"></path><path d="M-58.87 657.31L38.94 560.79" stroke="hsl(228.5, 77.2%, 51.5%)" stroke-width="1.5"></path><path d="M-58.87 657.31L241.19 660.08" stroke="hsl(228.5, 77.2%, 51.5%)" stroke-width="1.5"></path><path d="M-58.87 657.31L232.43 506.62" stroke="hsl(228.5, 77.2%, 51.5%)" stroke-width="1.5"></path><path d="M38.94 560.79L38.94 560.79" stroke="hsl(228.5, 77.2%, 51.5%)" stroke-width="1.5"></path><path d="M38.94 560.79L57.56 682.8" stroke="hsl(228.5, 77.2%, 51.5%)" stroke-width="1.5"></path><path d="M38.94 560.79L232.43 506.62" stroke="hsl(228.5, 77.2%, 51.5%)" stroke-width="1.5"></path><path d="M57.56 682.8L57.56 682.8" stroke="hsl(228.5, 77.2%, 51.5%)" stroke-width="1.5"></path><path d="M57.56 682.8L241.19 660.08" stroke="hsl(228.5, 77.2%, 51.5%)" stroke-width="1.5"></path><path d="M57.56 682.8L-85.78 542.58" stroke="hsl(228.5, 77.2%, 51.5%)" stroke-width="1.5"></path><path d="M57.56 682.8L232.43 506.62" stroke="hsl(228.5, 77.2%, 51.5%)" stroke-width="1.5"></path><path d="M57.56 682.8L365.72 682.82" stroke="hsl(228.5, 77.2%, 51.5%)" stroke-width="1.5"></path><path d="M232.43 506.62L232.43 506.62" stroke="hsl(228.5, 77.2%, 51.5%)" stroke-width="1.5"></path><path d="M232.43 506.62L380.14 506.71" stroke="hsl(228.5, 77.2%, 51.5%)" stroke-width="1.5"></path><path d="M232.43 506.62L241.19 660.08" stroke="hsl(228.5, 77.2%, 51.5%)" stroke-width="1.5"></path><path d="M232.43 506.62L365.72 682.82" stroke="hsl(228.5, 77.2%, 51.5%)" stroke-width="1.5"></path><path d="M241.19 660.08L241.19 660.08" stroke="hsl(228.5, 77.2%, 51.5%)" stroke-width="1.5"></path><path d="M241.19 660.08L365.72 682.82" stroke="hsl(228.5, 77.2%, 51.5%)" stroke-width="1.5"></path><path d="M380.14 506.71L380.14 506.71" stroke="hsl(228.5, 77.2%, 51.5%)" stroke-width="1.5"></path><path d="M365.72 682.82L365.72 682.82" stroke="hsl(228.5, 77.2%, 51.5%)" stroke-width="1.5"></path><path d="M365.72 682.82L501.53 673.74" stroke="hsl(228.5, 77.2%, 51.5%)" stroke-width="1.5"></path><path d="M365.72 682.82L380.14 506.71" stroke="hsl(228.5, 77.2%, 51.5%)" stroke-width="1.5"></path><path d="M501.53 673.74L501.53 673.74" stroke="hsl(228.5, 77.2%, 51.5%)" stroke-width="1.5"></path><path d="M501.53 673.74L657.06 554.47" stroke="hsl(228.5, 77.2%, 51.5%)" stroke-width="1.5"></path><path d="M501.53 673.74L380.14 506.71" stroke="hsl(228.5, 77.2%, 51.5%)" stroke-width="1.5"></path><path d="M501.53 673.74L241.19 660.08" stroke="hsl(228.5, 77.2%, 51.5%)" stroke-width="1.5"></path><path d="M657.06 554.47L657.06 554.47" stroke="hsl(228.5, 77.2%, 51.5%)" stroke-width="1.5"></path><path d="M657.06 554.47L798.81 491.81" stroke="hsl(228.5, 77.2%, 51.5%)" stroke-width="1.5"></path><path d="M822.24 406.44L822.24 406.44" stroke="hsl(228.5, 77.2%, 51.5%)" stroke-width="1.5"></path><path d="M822.24 406.44L798.81 491.81" stroke="hsl(228.5, 77.2%, 51.5%)" stroke-width="1.5"></path><path d="M822.24 406.44L941.24 373.72" stroke="hsl(228.5, 77.2%, 51.5%)" stroke-width="1.5"></path><path d="M822.24 406.44L1001.01 493.27" stroke="hsl(228.5, 77.2%, 51.5%)" stroke-width="1.5"></path><path d="M798.81 491.81L798.81 491.81" stroke="hsl(228.5, 77.2%, 51.5%)" stroke-width="1.5"></path><path d="M798.81 491.81L941.24 373.72" stroke="hsl(228.5, 77.2%, 51.5%)" stroke-width="1.5"></path><path d="M798.81 491.81L1001.01 493.27" stroke="hsl(228.5, 77.2%, 51.5%)" stroke-width="1.5"></path><path d="M798.81 491.81L664.21 679.4" stroke="hsl(228.5, 77.2%, 51.5%)" stroke-width="1.5"></path><path d="M941.24 373.72L941.24 373.72" stroke="hsl(228.5, 77.2%, 51.5%)" stroke-width="1.5"></path><path d="M1122.16 249.5L1122.16 249.5" stroke="hsl(228.5, 77.2%, 51.5%)" stroke-width="1.5"></path><path d="M1122.16 249.5L1094.3 381.9" stroke="hsl(228.5, 77.2%, 51.5%)" stroke-width="1.5"></path><path d="M1094.3 381.9L1094.3 381.9" stroke="hsl(228.5, 77.2%, 51.5%)" stroke-width="1.5"></path><path d="M1094.3 381.9L1132 519.78" stroke="hsl(228.5, 77.2%, 51.5%)" stroke-width="1.5"></path><path d="M1094.3 381.9L941.24 373.72" stroke="hsl(228.5, 77.2%, 51.5%)" stroke-width="1.5"></path><path d="M1132 519.78L1132 519.78" stroke="hsl(228.5, 77.2%, 51.5%)" stroke-width="1.5"></path><path d="M1132 519.78L1115.07 653.4" stroke="hsl(228.5, 77.2%, 51.5%)" stroke-width="1.5"></path><path d="M1115.07 653.4L1115.07 653.4" stroke="hsl(228.5, 77.2%, 51.5%)" stroke-width="1.5"></path><path d="M1267.55 -49.78L1267.55 -49.78" stroke="hsl(228.5, 77.2%, 51.5%)" stroke-width="1.5"></path><path d="M1267.55 -49.78L1289.31 41.19" stroke="hsl(228.5, 77.2%, 51.5%)" stroke-width="1.5"></path><path d="M1267.55 -49.78L1413.94 -39.47" stroke="hsl(228.5, 77.2%, 51.5%)" stroke-width="1.5"></path><path d="M1267.55 -49.78L1453.24 64.88" stroke="hsl(228.5, 77.2%, 51.5%)" stroke-width="1.5"></path><path d="M1267.55 -49.78L1278.55 209.98" stroke="hsl(228.5, 77.2%, 51.5%)" stroke-width="1.5"></path><path d="M1267.55 -49.78L1543.92 -78.78" stroke="hsl(228.5, 77.2%, 51.5%)" stroke-width="1.5"></path><path d="M1289.31 41.19L1289.31 41.19" stroke="hsl(228.5, 77.2%, 51.5%)" stroke-width="1.5"></path><path d="M1289.31 41.19L1413.94 -39.47" stroke="hsl(228.5, 77.2%, 51.5%)" stroke-width="1.5"></path><path d="M1311.18 402.13L1311.18 402.13" stroke="hsl(228.5, 77.2%, 51.5%)" stroke-width="1.5"></path><path d="M1311.18 402.13L1390.09 345.61" stroke="hsl(228.5, 77.2%, 51.5%)" stroke-width="1.5"></path><path d="M1311.18 402.13L1266.43 557.71" stroke="hsl(228.5, 77.2%, 51.5%)" stroke-width="1.5"></path><path d="M1311.18 402.13L1461.88 503.64" stroke="hsl(228.5, 77.2%, 51.5%)" stroke-width="1.5"></path><path d="M1311.77 672.22L1311.77 672.22" stroke="hsl(228.5, 77.2%, 51.5%)" stroke-width="1.5"></path><path d="M1311.77 672.22L1390.29 645.67" stroke="hsl(228.5, 77.2%, 51.5%)" stroke-width="1.5"></path><path d="M1311.77 672.22L1115.07 653.4" stroke="hsl(228.5, 77.2%, 51.5%)" stroke-width="1.5"></path><path d="M1311.77 672.22L1461.88 503.64" stroke="hsl(228.5, 77.2%, 51.5%)" stroke-width="1.5"></path><path d="M1413.94 -39.47L1413.94 -39.47" stroke="hsl(228.5, 77.2%, 51.5%)" stroke-width="1.5"></path><path d="M1413.94 -39.47L1543.92 -78.78" stroke="hsl(228.5, 77.2%, 51.5%)" stroke-width="1.5"></path><path d="M1413.94 -39.47L1555.01 51.38" stroke="hsl(228.5, 77.2%, 51.5%)" stroke-width="1.5"></path><path d="M1413.94 -39.47L1278.55 209.98" stroke="hsl(228.5, 77.2%, 51.5%)" stroke-width="1.5"></path><path d="M1435 260.89L1435 260.89" stroke="hsl(228.5, 77.2%, 51.5%)" stroke-width="1.5"></path><path d="M1435 260.89L1390.09 345.61" stroke="hsl(228.5, 77.2%, 51.5%)" stroke-width="1.5"></path><path d="M1435 260.89L1555.97 338.73" stroke="hsl(228.5, 77.2%, 51.5%)" stroke-width="1.5"></path><path d="M1390.09 345.61L1390.09 345.61" stroke="hsl(228.5, 77.2%, 51.5%)" stroke-width="1.5"></path><path d="M1390.09 345.61L1555.97 338.73" stroke="hsl(228.5, 77.2%, 51.5%)" stroke-width="1.5"></path><path d="M1390.09 345.61L1461.88 503.64" stroke="hsl(228.5, 77.2%, 51.5%)" stroke-width="1.5"></path><path d="M1461.88 503.64L1461.88 503.64" stroke="hsl(228.5, 77.2%, 51.5%)" stroke-width="1.5"></path><path d="M1461.88 503.64L1583.68 521.99" stroke="hsl(228.5, 77.2%, 51.5%)" stroke-width="1.5"></path><path d="M1461.88 503.64L1390.29 645.67" stroke="hsl(228.5, 77.2%, 51.5%)" stroke-width="1.5"></path><path d="M1390.29 645.67L1390.29 645.67" stroke="hsl(228.5, 77.2%, 51.5%)" stroke-width="1.5"></path><path d="M1390.29 645.67L1266.43 557.71" stroke="hsl(228.5, 77.2%, 51.5%)" stroke-width="1.5"></path><path d="M1543.92 -78.78L1543.92 -78.78" stroke="hsl(228.5, 77.2%, 51.5%)" stroke-width="1.5"></path><path d="M1543.92 -78.78L1555.01 51.38" stroke="hsl(228.5, 77.2%, 51.5%)" stroke-width="1.5"></path><path d="M1555.01 51.38L1555.01 51.38" stroke="hsl(228.5, 77.2%, 51.5%)" stroke-width="1.5"></path><path d="M1583.68 521.99L1583.68 521.99" stroke="hsl(228.5, 77.2%, 51.5%)" stroke-width="1.5"></path><path d="M1583.68 521.99L1555.97 338.73" stroke="hsl(228.5, 77.2%, 51.5%)" stroke-width="1.5"></path><path d="M1583.68 521.99L1390.29 645.67" stroke="hsl(228.5, 77.2%, 51.5%)" stroke-width="1.5"></path><circle r="25" cx="492.63" cy="512.01" fill="url(#SvgjsRadialGradient1001)"></circle><circle r="25" cx="664.21" cy="679.4" fill="url(#SvgjsRadialGradient1001)"></circle><circle r="25" cx="852.4" cy="667.67" fill="url(#SvgjsRadialGradient1001)"></circle><circle r="25" cx="992.57" cy="259.88" fill="url(#SvgjsRadialGradient1001)"></circle><circle r="25" cx="1001.01" cy="493.27" fill="url(#SvgjsRadialGradient1001)"></circle><circle r="25" cx="955.39" cy="682.57" fill="url(#SvgjsRadialGradient1001)"></circle><circle r="25" cx="1278.55" cy="209.98" fill="url(#SvgjsRadialGradient1001)"></circle><circle r="25" cx="1266.43" cy="557.71" fill="url(#SvgjsRadialGradient1001)"></circle><circle r="25" cx="1453.24" cy="64.88" fill="url(#SvgjsRadialGradient1001)"></circle><circle r="25" cx="1577.36" cy="209.15" fill="url(#SvgjsRadialGradient1001)"></circle><circle r="25" cx="1555.97" cy="338.73" fill="url(#SvgjsRadialGradient1001)"></circle><circle r="25" cx="1584.23" cy="704.35" fill="url(#SvgjsRadialGradient1001)"></circle><circle r="5" cx="-85.78" cy="542.58" fill="#8b9ad9"></circle><circle r="5" cx="-58.87" cy="657.31" fill="#8b9ad9"></circle><circle r="5" cx="38.94" cy="560.79" fill="#8b9ad9"></circle><circle r="5" cx="57.56" cy="682.8" fill="#8b9ad9"></circle><circle r="5" cx="232.43" cy="506.62" fill="#8b9ad9"></circle><circle r="5" cx="241.19" cy="660.08" fill="#8b9ad9"></circle><circle r="5" cx="380.14" cy="506.71" fill="#8b9ad9"></circle><circle r="5" cx="365.72" cy="682.82" fill="#8b9ad9"></circle><circle r="5" cx="501.53" cy="673.74" fill="#8b9ad9"></circle><circle r="5" cx="657.06" cy="554.47" fill="#8b9ad9"></circle><circle r="5" cx="822.24" cy="406.44" fill="#8b9ad9"></circle><circle r="5" cx="798.81" cy="491.81" fill="#8b9ad9"></circle><circle r="5" cx="941.24" cy="373.72" fill="#8b9ad9"></circle><circle r="5" cx="1122.16" cy="249.5" fill="#8b9ad9"></circle><circle r="5" cx="1094.3" cy="381.9" fill="#8b9ad9"></circle><circle r="5" cx="1132" cy="519.78" fill="#8b9ad9"></circle><circle r="5" cx="1115.07" cy="653.4" fill="#8b9ad9"></circle><circle r="5" cx="1267.55" cy="-49.78" fill="#8b9ad9"></circle><circle r="5" cx="1289.31" cy="41.19" fill="#8b9ad9"></circle><circle r="5" cx="1311.18" cy="402.13" fill="#8b9ad9"></circle><circle r="5" cx="1311.77" cy="672.22" fill="#8b9ad9"></circle><circle r="5" cx="1413.94" cy="-39.47" fill="#8b9ad9"></circle><circle r="5" cx="1435" cy="260.89" fill="#8b9ad9"></circle><circle r="5" cx="1390.09" cy="345.61" fill="#8b9ad9"></circle><circle r="5" cx="1461.88" cy="503.64" fill="#8b9ad9"></circle><circle r="5" cx="1390.29" cy="645.67" fill="#8b9ad9"></circle><circle r="5" cx="1543.92" cy="-78.78" fill="#8b9ad9"></circle><circle r="5" cx="1555.01" cy="51.38" fill="#8b9ad9"></circle><circle r="5" cx="1583.68" cy="521.99" fill="#8b9ad9"></circle></g><defs><mask id="SvgjsMask1000"><rect width="1440" height="560" fill="#ffffff"></rect></mask><radialGradient id="SvgjsRadialGradient1001"><stop stop-color="#ffffff" offset="0.1"></stop><stop stop-color="#1735b3" offset="0.2"></stop><stop stop-color="rgba(23, 53, 179, 0)" offset="1"></stop></radialGradient></defs></svg>